<svg width="922" height="128" viewBox="0 0 922 128" fill="none" xmlns="http://www.w3.org/2000/svg">
<path d="M0 128V28.8887L28.3057 0.5H141.611V28.8887H42.5L28.3057 43H141.611V71.3887H28.3057V128H0ZM184.194 128L155.889 99.6943V71.3887L184.194 43H269.194L297.5 71.3887V128L269.194 99.6943V85.5L255 71.3887H198.389L184.194 85.5L198.389 99.6943H269.194V128H184.194ZM340.083 128L311.777 99.6943V71.3887L340.083 43H453.389V71.3887H354.277L340.083 85.5L354.277 99.6943H453.389V128H340.083ZM552.666 128L524.277 99.6943V71.3887H467.666V43H524.277V0.5H552.666V43H609.277V71.3887H552.666V85.5L566.777 99.6943H609.277V128H552.666ZM651.86 128L623.555 99.6943V43H651.86V85.5L666.055 99.6943H736.86V128H651.86ZM765.166 128L736.86 99.6943V43H765.166V128ZM779.443 128V43L807.749 71.3887V128H779.443ZM836.055 128V71.3887H807.749V43H892.749L921.055 71.3887V128H892.749V85.5L878.555 71.3887H864.443V128H836.055Z" fill="url(#paint0_linear_148_107)"/>
<defs>
<linearGradient id="paint0_linear_148_107" x1="0" y1="64.5" x2="936" y2="64.5" gradientUnits="userSpaceOnUse">
<stop stop-color="#16F585"/>
<stop offset="1" stop-color="#16F5F5"/>
</linearGradient>
</defs>
</svg>
